#!OML:ASF H:\Terrain\Patient Classification 1\Terrain2\Thursday\justin.ASF
:FULLY-SPECIFIED
:DEGREES
2671
root -9.84499 17.2054 -22.0483 1269.51 86.0188 -171.874
lowerback 3.3881 0.959711 -1.52131
upperback 2.61509 1.28972 2.20495
thorax 0.701795 0.63141 3.08324
lowerneck -14.5252 -3.31256 -8.737
upperneck 36.0931 -1.03326 0.884022
head 15.1575 -1.02951 1.86471
rclavicle 5.26779e-015 -1.82882e-014
rhumerus -30.3757 -11.3256 -77.6414
rradius 28.9816
rwrist -16.3673
rhand -22.1037 10.9957
rfingers 7.12502
rthumb 4.30861 -18.9404
lclavicle 5.26779e-015 -1.82882e-014
lhumerus -35.7385 7.48606 83.0694
lradius 32.7476
lwrist 3.80255
lhand -17.7369 20.6562
lfingers 7.12502
lthumb 8.52422 50.4642
rfemur -29.2096 -2.49066 15.9827
rtibia 24.5097
rfoot 1.89728 -1.24358
rtoes 8.20635
lfemur 4.42533 1.27465 -22.3683
ltibia 13.3578
lfoot -12.086 -9.37114
ltoes 12.6063
2672
root -9.77057 17.2128 -22.0365 1273.28 85.6923 -168.08
lowerback 3.39392 1.12795 -0.862427
upperback 2.58015 1.53175 2.20184
thorax 0.662874 0.762374 2.70109
lowerneck -14.0974 -3.50655 -8.91301
upperneck 35.9754 -1.39081 1.12113
head 15.0284 -1.16268 1.93578
rclavicle -1.87852e-014 -1.78906e-014
rhumerus -31.0266 -10.3929 -77.695
rradius 29.3941
rwrist -17.8462
rhand -22.4919 10.4524
rfingers 7.12502
rthumb 3.93375 -19.491
lclavicle -1.87852e-014 -1.78906e-014
lhumerus -35.7416 6.69119 83.3502
lradius 32.594
lwrist 4.0299
lhand -17.3687 20.7105
lfingers 7.12502
lthumb 8.8796 50.5036
rfemur -29.1473 -2.53317 16.3247
rtibia 23.5422
rfoot 3.1306 -1.16618
rtoes 8.8961
lfemur 5.11766 1.31499 -21.8768
ltibia 12.5241
lfoot -11.6438 -9.70786
ltoes 13.3517
2673
root -9.69802 17.2227 -22.0217 1274.92 85.4607 -166.422
lowerback 3.39519 1.00103 -0.664641
upperback 2.68239 1.36779 2.07783
thorax 0.783068 0.682638 2.46843
lowerneck -14.3189 -3.37738 -8.43377
upperneck 35.9691 -1.37309 1.20001
head 15.0595 -1.08524 1.88649
rclavicle -2.28602e-015 -2.42517e-014
rhumerus -30.8279 -12.3567 -77.5958
rradius 28.9588
rwrist -16.6096
rhand -22.4592 11.1741
rfingers 7.12502
rthumb 3.96532 -18.7687
lclavicle -2.28602e-015 -2.42517e-014
lhumerus -35.6535 6.33119 82.9391
lradius 32.617
lwrist 4.54984
lhand -17.2036 21.3484
lfingers 7.12502
lthumb 9.03887 51.1347
rfemur -29.0908 -2.74678 16.6203
rtibia 22.6616
rfoot 4.368 -1.14697
rtoes 9.12332
lfemur 5.69681 1.15914 -21.5905
ltibia 11.9488
lfoot -11.1935 -9.80615
ltoes 15.6806
2674
root -9.62409 17.2336 -21.9967 1273.75 85.3743 -167.639
lowerback 3.31858 0.852735 -1.03022
upperback 2.75936 1.16067 2.0334
thorax 0.909185 0.572404 2.63644
lowerneck -14.6038 -3.27123 -8.12236
upperneck 36.0791 -1.25282 1.1015
head 15.1625 -1.01165 1.81112
rclavicle 9.39258e-015 -3.57812e-015
rhumerus -30.5279 -12.1712 -78.1932
rradius 28.5729
rwrist -17.2037
rhand -22.8704 12.0879
rfingers 7.12502
rthumb 3.56824 -17.8619
lclavicle 9.39258e-015 -3.57812e-015
lhumerus -35.6505 7.08638 82.3721
lradius 32.5656
lwrist 4.17589
lhand -16.9104 21.5779
lfingers 7.12502
lthumb 9.3218 51.3518
rfemur -29.1442 -2.98307 16.7539
rtibia 21.9883
rfoot 5.24259 -1.19145
rtoes 7.47638
lfemur 6.19516 1.24985 -21.5131
ltibia 11.3928
lfoot -10.7344 -10.0344
ltoes 17.7855
2675
root -9.5441 17.238 -21.9723 1273.93 85.2675 -167.563
lowerback 3.16305 0.813144 -1.2472
upperback 2.73184 1.10203 2.0699
thorax 0.966679 0.53852 2.79992
lowerneck -14.564 -3.30109 -7.9918
upperneck 36.137 -1.27726 0.950167
head 15.1799 -1.02406 1.72162
rclavicle 3.78685e-014 8.34896e-015
rhumerus -30.6594 -12.0774 -78.2241
rradius 28.2721
rwrist -17.0567
rhand -22.5117 12.2611
rfingers 7.12502
rthumb 3.91461 -17.6827
lclavicle 3.78685e-014 8.34896e-015
lhumerus -35.7819 7.57276 82.212
lradius 32.4303
lwrist 3.90378
lhand -16.6649 21.4179
lfingers 7.12502
lthumb 9.55869 51.1811
rfemur -29.3312 -3.42887 17.098
rtibia 21.6412
rfoot 5.49494 -1.05165
rtoes 4.35708
lfemur 6.72537 1.49646 -21.2989
ltibia 10.6627
lfoot -10.2956 -10.3007
ltoes 18.1739
